<svg width="160" height="46" viewBox="0 0 160 46" fill="none" xmlns="http://www.w3.org/2000/svg">
<path d="M23.312 21.576H4.304L23.888 2.12H2.256V45H0.336V0.199997H28.56L8.976 19.656H23.312V21.576ZM38.6595 43.08H59.5235L46.4035 12.168L32.4515 45H30.4035L46.4035 7.24L62.4035 45H38.6595V43.08ZM71.561 41.096C69.257 38.0667 68.105 33.1813 68.105 26.44C68.105 19.6987 69.257 14.8133 71.561 11.784C73.865 8.75466 77.6837 7.24 83.017 7.24C88.3503 7.24 92.1903 8.712 94.537 11.656L93.129 12.936C91.2517 10.4187 87.881 9.16 83.017 9.16C80.8837 9.16 79.0917 9.39467 77.641 9.864C76.1903 10.2907 74.8463 11.1227 73.609 12.36C72.4143 13.5547 71.5183 15.3253 70.921 17.672C70.3237 19.976 70.025 22.8987 70.025 26.44C70.025 29.9813 70.3237 32.9253 70.921 35.272C71.5183 37.576 72.4143 39.3467 73.609 40.584C74.8463 41.7787 76.1903 42.6107 77.641 43.08C79.0917 43.5067 80.8837 43.72 83.017 43.72C87.881 43.72 91.2517 42.4613 93.129 39.944L94.537 41.224C92.1903 44.168 88.3503 45.64 83.017 45.64C77.6837 45.64 73.865 44.1253 71.561 41.096ZM128.08 7.88V9.8H114.64V45H112.72V9.8H99.28V7.88H128.08ZM145.247 7.112C150.538 7.112 154.292 8.28533 156.511 10.632L155.231 12.04C153.183 10.0347 149.94 9.032 145.503 9.032C138.847 9.032 135.519 11.6773 135.519 16.968C135.519 19.016 136.33 20.6587 137.951 21.896C139.572 23.0907 141.535 24.008 143.839 24.648C146.186 25.288 148.511 25.9707 150.815 26.696C153.162 27.3787 155.146 28.5093 156.767 30.088C158.388 31.624 159.199 33.6507 159.199 36.168C159.199 39.112 157.983 41.4587 155.551 43.208C153.119 44.9573 149.599 45.832 144.991 45.832C142.73 45.832 140.49 45.5333 138.271 44.936C136.095 44.3387 134.474 43.464 133.407 42.312L134.687 40.904C136.863 42.9093 140.212 43.912 144.735 43.912C148.874 43.912 151.988 43.144 154.079 41.608C156.212 40.072 157.279 38.28 157.279 36.232C157.279 34.0987 156.468 32.3707 154.847 31.048C153.226 29.7253 151.242 28.744 148.895 28.104C146.591 27.4213 144.266 26.7387 141.919 26.056C139.615 25.3307 137.652 24.2213 136.031 22.728C134.41 21.2347 133.599 19.272 133.599 16.84C133.599 13.5547 134.687 11.1227 136.863 9.544C139.082 7.92267 141.876 7.112 145.247 7.112Z" fill="black"/>
</svg>
