<svg width="217" height="58" viewBox="0 0 217 58" fill="none" xmlns="http://www.w3.org/2000/svg">
<path d="M27.216 45H25.296V22.6H2.256V45H0.336V0.199997H2.256V20.68H25.296V0.199997H27.216V45ZM39.6425 7.88H41.5625V45H39.6425V7.88ZM63.497 7.112C68.7877 7.112 72.5423 8.28533 74.761 10.632L73.481 12.04C71.433 10.0347 68.1903 9.032 63.753 9.032C57.097 9.032 53.769 11.6773 53.769 16.968C53.769 19.016 54.5797 20.6587 56.201 21.896C57.8223 23.0907 59.785 24.008 62.089 24.648C64.4357 25.288 66.761 25.9707 69.065 26.696C71.4117 27.3787 73.3957 28.5093 75.017 30.088C76.6383 31.624 77.449 33.6507 77.449 36.168C77.449 39.112 76.233 41.4587 73.801 43.208C71.369 44.9573 67.849 45.832 63.241 45.832C60.9797 45.832 58.7397 45.5333 56.521 44.936C54.345 44.3387 52.7237 43.464 51.657 42.312L52.937 40.904C55.113 42.9093 58.4623 43.912 62.985 43.912C67.1237 43.912 70.2383 43.144 72.329 41.608C74.4623 40.072 75.529 38.28 75.529 36.232C75.529 34.0987 74.7183 32.3707 73.097 31.048C71.4757 29.7253 69.4917 28.744 67.145 28.104C64.841 27.4213 62.5157 26.7387 60.169 26.056C57.865 25.3307 55.9023 24.2213 54.281 22.728C52.6597 21.2347 51.849 19.272 51.849 16.84C51.849 13.5547 52.937 11.1227 55.113 9.544C57.3317 7.92267 60.1263 7.112 63.497 7.112ZM110.768 7.88V9.8H97.3275V45H95.4075V9.8H81.9675V7.88H110.768ZM136.831 9.864C135.38 9.39467 133.588 9.16 131.455 9.16C129.321 9.16 127.529 9.39467 126.079 9.864C124.628 10.2907 123.284 11.1227 122.047 12.36C120.852 13.5547 119.956 15.3253 119.359 17.672C118.761 19.976 118.463 22.8987 118.463 26.44C118.463 29.9813 118.761 32.9253 119.359 35.272C119.956 37.576 120.852 39.3467 122.047 40.584C123.284 41.7787 124.628 42.6107 126.079 43.08C127.529 43.5067 129.321 43.72 131.455 43.72C133.588 43.72 135.38 43.5067 136.831 43.08C138.281 42.6107 139.604 41.7787 140.799 40.584C142.036 39.3467 142.953 37.576 143.551 35.272C144.148 32.9253 144.447 29.9813 144.447 26.44C144.447 22.8987 144.148 19.976 143.551 17.672C142.953 15.3253 142.036 13.5547 140.799 12.36C139.604 11.1227 138.281 10.2907 136.831 9.864ZM142.911 41.096C140.607 44.1253 136.788 45.64 131.455 45.64C126.121 45.64 122.303 44.1253 119.999 41.096C117.695 38.0667 116.543 33.1813 116.543 26.44C116.543 19.6987 117.695 14.8133 119.999 11.784C122.303 8.75466 126.121 7.24 131.455 7.24C136.788 7.24 140.607 8.75466 142.911 11.784C145.215 14.8133 146.367 19.6987 146.367 26.44C146.367 33.1813 145.215 38.0667 142.911 41.096ZM172.571 26.376L181.275 45H179.163L170.203 25.8C170.288 25.7573 170.651 25.5867 171.291 25.288C171.974 24.9467 172.443 24.712 172.699 24.584C172.955 24.4133 173.382 24.136 173.979 23.752C174.576 23.368 175.024 23.0053 175.323 22.664C175.622 22.28 175.942 21.8533 176.283 21.384C176.667 20.872 176.944 20.3173 177.115 19.72C177.286 19.08 177.371 18.3973 177.371 17.672C177.371 14.984 176.091 13 173.531 11.72C170.971 10.44 167.792 9.8 163.995 9.8H158.875V45H156.955V7.88H163.995C169.03 7.88 172.827 8.75466 175.387 10.504C177.99 12.2533 179.291 14.6427 179.291 17.672C179.291 19.6347 178.63 21.384 177.307 22.92C175.984 24.4133 174.406 25.5653 172.571 26.376ZM192.195 7.88H216.963L201.923 43.4V57.8H200.003V43.4L184.963 7.88H187.011L200.963 40.712L214.083 9.8H192.195V7.88Z" fill="black"/>
</svg>
