<svg width="349" height="46" viewBox="0 0 349 46" fill="none" xmlns="http://www.w3.org/2000/svg">
<path d="M2.256 45H0.336V0.199997H2.256V45ZM14.6425 45V7.88H16.5625L37.4265 41.48V7.88H39.3465V45H37.4265L16.5625 11.336V45H14.6425ZM50.8775 45V26.44C50.8775 19.6987 52.0295 14.8133 54.3335 11.784C56.6802 8.75466 60.4988 7.24 65.7895 7.24C71.9762 7.24 76.1788 9.26666 78.3975 13.32L65.0215 24.52H78.6535V26.44H59.7095L75.9015 12.936C74.0242 10.4187 70.6535 9.16 65.7895 9.16C63.6562 9.16 61.8642 9.39467 60.4135 9.864C58.9628 10.2907 57.6188 11.1227 56.3815 12.36C55.1868 13.5547 54.2908 15.3253 53.6935 17.672C53.0962 19.976 52.7975 22.8987 52.7975 26.44V45H50.8775ZM106.956 9.864C105.505 9.39467 103.713 9.16 101.58 9.16C99.4462 9.16 97.6542 9.39467 96.2035 9.864C94.7528 10.2907 93.4088 11.1227 92.1715 12.36C90.9768 13.5547 90.0808 15.3253 89.4835 17.672C88.8862 19.976 88.5875 22.8987 88.5875 26.44C88.5875 29.9813 88.8862 32.9253 89.4835 35.272C90.0808 37.576 90.9768 39.3467 92.1715 40.584C93.4088 41.7787 94.7528 42.6107 96.2035 43.08C97.6542 43.5067 99.4462 43.72 101.58 43.72C103.713 43.72 105.505 43.5067 106.956 43.08C108.406 42.6107 109.729 41.7787 110.924 40.584C112.161 39.3467 113.078 37.576 113.676 35.272C114.273 32.9253 114.572 29.9813 114.572 26.44C114.572 22.8987 114.273 19.976 113.676 17.672C113.078 15.3253 112.161 13.5547 110.924 12.36C109.729 11.1227 108.406 10.2907 106.956 9.864ZM113.036 41.096C110.732 44.1253 106.913 45.64 101.58 45.64C96.2462 45.64 92.4275 44.1253 90.1235 41.096C87.8195 38.0667 86.6675 33.1813 86.6675 26.44C86.6675 19.6987 87.8195 14.8133 90.1235 11.784C92.4275 8.75466 96.2462 7.24 101.58 7.24C106.913 7.24 110.732 8.75466 113.036 11.784C115.34 14.8133 116.492 19.6987 116.492 26.44C116.492 33.1813 115.34 38.0667 113.036 41.096ZM142.696 26.376L151.4 45H149.288L140.328 25.8C140.413 25.7573 140.776 25.5867 141.416 25.288C142.099 24.9467 142.568 24.712 142.824 24.584C143.08 24.4133 143.507 24.136 144.104 23.752C144.701 23.368 145.149 23.0053 145.448 22.664C145.747 22.28 146.067 21.8533 146.408 21.384C146.792 20.872 147.069 20.3173 147.24 19.72C147.411 19.08 147.496 18.3973 147.496 17.672C147.496 14.984 146.216 13 143.656 11.72C141.096 10.44 137.917 9.8 134.12 9.8H129V45H127.08V7.88H134.12C139.155 7.88 142.952 8.75466 145.512 10.504C148.115 12.2533 149.416 14.6427 149.416 17.672C149.416 19.6347 148.755 21.384 147.432 22.92C146.109 24.4133 144.531 25.5653 142.696 26.376ZM166.096 43.08H190.8V10.568L176.4 24.968L162 10.568V45L160.08 44.936V7.88H162L176.4 22.28L190.8 7.88H192.72V45L166.096 44.936V43.08ZM208.285 43.08H229.149L216.029 12.168L202.077 45H200.029L216.029 7.24L232.029 45H208.285V43.08ZM263.33 7.88V9.8H249.89V45H247.97V9.8H234.53V7.88H263.33ZM270.705 7.88H272.625V45H270.705V7.88ZM303.456 9.864C302.005 9.39467 300.213 9.16 298.08 9.16C295.946 9.16 294.154 9.39467 292.704 9.864C291.253 10.2907 289.909 11.1227 288.672 12.36C287.477 13.5547 286.581 15.3253 285.984 17.672C285.386 19.976 285.088 22.8987 285.088 26.44C285.088 29.9813 285.386 32.9253 285.984 35.272C286.581 37.576 287.477 39.3467 288.672 40.584C289.909 41.7787 291.253 42.6107 292.704 43.08C294.154 43.5067 295.946 43.72 298.08 43.72C300.213 43.72 302.005 43.5067 303.456 43.08C304.906 42.6107 306.229 41.7787 307.424 40.584C308.661 39.3467 309.578 37.576 310.176 35.272C310.773 32.9253 311.072 29.9813 311.072 26.44C311.072 22.8987 310.773 19.976 310.176 17.672C309.578 15.3253 308.661 13.5547 307.424 12.36C306.229 11.1227 304.906 10.2907 303.456 9.864ZM309.536 41.096C307.232 44.1253 303.413 45.64 298.08 45.64C292.746 45.64 288.928 44.1253 286.624 41.096C284.32 38.0667 283.168 33.1813 283.168 26.44C283.168 19.6987 284.32 14.8133 286.624 11.784C288.928 8.75466 292.746 7.24 298.08 7.24C303.413 7.24 307.232 8.75466 309.536 11.784C311.84 14.8133 312.992 19.6987 312.992 26.44C312.992 33.1813 311.84 38.0667 309.536 41.096ZM323.58 45V7.88H325.5L346.364 41.48V7.88H348.284V45H346.364L325.5 11.336V45H323.58Z" fill="black"/>
</svg>
