<svg width="167" height="58" viewBox="0 0 167 58" fill="none" xmlns="http://www.w3.org/2000/svg">
<path d="M32.96 0.199997V2.12H17.92V45H16V2.12H0.96V0.199997H32.96ZM42.2575 7.88H67.0255L51.9855 43.4V57.8H50.0655V43.4L35.0255 7.88H37.0735L51.0255 40.712L64.1455 9.8H42.2575V7.88ZM90.077 31.176L89.117 29.512L92.701 27.464C95.645 25.8427 97.117 23.2613 97.117 19.72C97.117 13.1067 92.0823 9.8 82.013 9.8H76.125V57.8H74.205V7.88H82.013C87.645 7.88 91.8903 8.92533 94.749 11.016C97.6077 13.064 99.037 15.9653 99.037 19.72C99.037 23.9867 97.245 27.1227 93.661 29.128L90.077 31.176ZM132.912 41.224C130.565 44.168 126.725 45.64 121.392 45.64C116.059 45.64 112.24 44.1253 109.936 41.096C107.632 38.0667 106.48 33.1813 106.48 26.44C106.48 19.6987 107.632 14.8133 109.936 11.784C112.24 8.75466 116.059 7.24 121.392 7.24C127.579 7.24 131.781 9.26666 134 13.32L118.32 26.44H115.312L131.504 12.936C129.627 10.4187 126.256 9.16 121.392 9.16C119.259 9.16 117.467 9.39467 116.016 9.864C114.565 10.2907 113.221 11.1227 111.984 12.36C110.789 13.5547 109.893 15.3253 109.296 17.672C108.699 19.976 108.4 22.8987 108.4 26.44C108.4 29.9813 108.699 32.9253 109.296 35.272C109.893 37.576 110.789 39.3467 111.984 40.584C113.221 41.7787 114.565 42.6107 116.016 43.08C117.467 43.5067 119.259 43.72 121.392 43.72C126.256 43.72 129.627 42.4613 131.504 39.944L132.912 41.224ZM152.935 7.112C158.225 7.112 161.98 8.28533 164.199 10.632L162.919 12.04C160.871 10.0347 157.628 9.032 153.191 9.032C146.535 9.032 143.207 11.6773 143.207 16.968C143.207 19.016 144.017 20.6587 145.639 21.896C147.26 23.0907 149.223 24.008 151.527 24.648C153.873 25.288 156.199 25.9707 158.503 26.696C160.849 27.3787 162.833 28.5093 164.455 30.088C166.076 31.624 166.887 33.6507 166.887 36.168C166.887 39.112 165.671 41.4587 163.239 43.208C160.807 44.9573 157.287 45.832 152.679 45.832C150.417 45.832 148.177 45.5333 145.959 44.936C143.783 44.3387 142.161 43.464 141.095 42.312L142.375 40.904C144.551 42.9093 147.9 43.912 152.423 43.912C156.561 43.912 159.676 43.144 161.767 41.608C163.9 40.072 164.967 38.28 164.967 36.232C164.967 34.0987 164.156 32.3707 162.535 31.048C160.913 29.7253 158.929 28.744 156.583 28.104C154.279 27.4213 151.953 26.7387 149.607 26.056C147.303 25.3307 145.34 24.2213 143.719 22.728C142.097 21.2347 141.286 19.272 141.286 16.84C141.286 13.5547 142.375 11.1227 144.551 9.544C146.769 7.92267 149.564 7.112 152.935 7.112Z" fill="black"/>
</svg>
